<?xml version="1.0" encoding="utf-8"?>
<!-- Generator: Adobe Illustrator 22.0.1, SVG Export Plug-In . SVG Version: 6.00 Build 0)  -->
<svg version="1.1" id="Layer_1" xmlns="http://www.w3.org/2000/svg" xmlns:xlink="http://www.w3.org/1999/xlink" x="0px" y="0px"
	 viewBox="0 0 878.7 680.3" style="enable-background:new 0 0 878.7 680.3;" xml:space="preserve">
<style type="text/css">
	.st0{fill:none;stroke:#25A9E0;stroke-miterlimit:10;}
</style>
<g>
	<path class="st0" d="M864.3,437.2v86.2c0,78.3-63.3,141.7-141.4,141.7H155.3c-78.1,0-141.4-63.4-141.4-141.7V419.2V169.4V33.4
		c0-10,7.5-18.2,17.2-19.9c1.2-0.2,2.5-0.3,3.7-0.3l808.6,0c1.2,0,2.5,0.1,3.7,0.3c9.7,1.7,17.2,9.9,17.2,19.9v144.1V437.2z"/>
	<g>
		<g>
			<path class="st0" d="M527,49.3h-5.7c-4.3,0-7.8-3.5-7.8-7.8v0c0-4.3,3.5-7.8,7.8-7.8h5.7c4.3,0,7.8,3.5,7.8,7.8v0
				C534.8,45.8,531.3,49.3,527,49.3z"/>
		</g>
		<g>
			<path class="st0" d="M828.6,49.3h-5.7c-4.3,0-7.8-3.5-7.8-7.8v0c0-4.3,3.5-7.8,7.8-7.8h5.7c4.3,0,7.8,3.5,7.8,7.8v0
				C836.4,45.8,832.9,49.3,828.6,49.3z"/>
		</g>
		<g>
			<path class="st0" d="M55.3,49.3h-5.7c-4.3,0-7.8-3.5-7.8-7.8v0c0-4.3,3.5-7.8,7.8-7.8h5.7c4.3,0,7.8,3.5,7.8,7.8v0
				C63.1,45.8,59.6,49.3,55.3,49.3z"/>
		</g>
		<g>
			<path class="st0" d="M356.9,49.3h-5.7c-4.3,0-7.8-3.5-7.8-7.8v0c0-4.3,3.5-7.8,7.8-7.8h5.7c4.3,0,7.8,3.5,7.8,7.8v0
				C364.7,45.8,361.2,49.3,356.9,49.3z"/>
		</g>
	</g>
</g>
</svg>
