<?xml version="1.0" encoding="utf-8"?>
<!-- Generator: Adobe Illustrator 22.0.1, SVG Export Plug-In . SVG Version: 6.00 Build 0)  -->
<svg version="1.1" id="Layer_1" xmlns="http://www.w3.org/2000/svg" xmlns:xlink="http://www.w3.org/1999/xlink" x="0px" y="0px"
	 viewBox="0 0 878.8 396.9" style="enable-background:new 0 0 878.8 396.9;" xml:space="preserve">
<style type="text/css">
	.st0{fill:none;stroke:#00AEEF;stroke-miterlimit:10;}
</style>
<g>
	<g>
		<path class="st0" d="M348.8,363.1l-5.6-0.9c-4.2-0.7-7.1-4.7-6.4-9l0,0c0.7-4.2,4.7-7.1,9-6.4l5.6,0.9c4.2,0.7,7.1,4.7,6.4,9h0
			C357.1,360.9,353,363.8,348.8,363.1z"/>
	</g>
	<path class="st0" d="M328.8,304.1l-9.6,57c-1.1,6.5,3.3,12.7,9.9,13.8l28.6,4.8c6.5,1.1,12.7-3.3,13.8-9.9l9.6-57"/>
</g>
<g>
	<g>
		<path class="st0" d="M45.3,219.3l-4.2-3.8c-3.2-2.8-3.5-7.8-0.7-11l0,0c2.8-3.2,7.8-3.5,11-0.7l4.2,3.8c3.2,2.8,3.5,7.8,0.7,11
			l0,0C53.5,221.8,48.5,222.1,45.3,219.3z"/>
	</g>
	<path class="st0" d="M59.6,158.6l-38.4,43.3c-4.4,4.9-3.9,12.6,1,16.9L44,238.1c4.9,4.4,12.6,3.9,16.9-1l38.4-43.3"/>
</g>
<g>
	<g>
		<path class="st0" d="M530.5,363.1l5.6-0.9c4.2-0.7,7.1-4.7,6.4-9l0,0c-0.7-4.2-4.7-7.1-9-6.4l-5.6,0.9c-4.2,0.7-7.1,4.7-6.4,9l0,0
			C522.3,360.9,526.3,363.8,530.5,363.1z"/>
	</g>
	<path class="st0" d="M550.5,304.1l9.6,57c1.1,6.5-3.3,12.7-9.9,13.8l-28.6,4.8c-6.5,1.1-12.7-3.3-13.8-9.9l-9.6-57"/>
</g>
<g>
	<g>
		<path class="st0" d="M834,219.3l4.2-3.8c3.2-2.8,3.5-7.8,0.7-11l0,0c-2.8-3.2-7.8-3.5-11-0.7l-4.2,3.8c-3.2,2.8-3.5,7.8-0.7,11v0
			C825.8,221.8,830.8,222.1,834,219.3z"/>
	</g>
	<path class="st0" d="M819.7,158.6l38.4,43.3c4.4,4.9,3.9,12.6-1,16.9l-21.7,19.2c-4.9,4.4-12.6,3.9-16.9-1L780,193.8"/>
</g>
<path class="st0" d="M55.1,163.7l-0.8,0.9c-2.1,2.4-5.8,2.6-8.1,0.4c-3.7-3.5-7.3-7-10.9-10.6c-6.7-6.7-10.4-12.5-10.4-18.8
	c0-10,4.4-15.4,10.8-19.2C145,51.7,285.9,15.2,439.7,15.2c153.9,0,294.8,36.5,404.1,101.4c6.3,3.7,9.6,8.4,9.6,18.1
	c0,8.3-2.3,12.8-8.8,19.3c-3.8,3.7-7.6,7.4-11.4,11.1c-2.3,2.2-6,2-8.1-0.4l-0.8-0.9"/>
<path class="st0" d="M327.7,310.4l-0.1,0.3c-0.5,3.2-3.7,5.3-6.9,4.6c-81.9-18.5-158.2-55.8-225.5-108c-2.6-2-2.9-5.8-0.7-8.2
	l0.6-0.6"/>
<path class="st0" d="M499.3,319.2L499.3,319.2c0.6,3.3-1.7,6.3-5,6.7c-18,1.8-36.3,2.8-54.7,2.8c-18.4,0-36.7-0.9-54.7-2.8
	c-3.2-0.3-5.5-3.4-5-6.6l0-0.1"/>
<path class="st0" d="M784.3,198.7l0.4,0.5c2.2,2.4,1.8,6.2-0.7,8.2c-67.3,52.2-143.6,89.5-225.5,108c-3.2,0.7-6.3-1.4-6.9-4.6
	l-0.1-0.4"/>
</svg>
